P2
61 94
255
83 66 49 37 28 29 37 42 49 67 81 101 117 130 142 161 170 173 176 181 173 175 180 189 182 166 127 82 67 75 85 104 93 98 91 91 120 112 90 87 115 140 153 169 166 153 141 134 125 114 110 109 130 146 168 194 212 231 237 241 169
79 63 48 37 30 32 42 48 55 73 96 118 129 140 146 168 172 182 196 192 170 166 163 166 140 93 73 37 24 47 56 62 57 57 52 67 113 131 131 129 132 137 123 137 148 153 135 126 119 104 105 107 121 142 171 194 213 226 236 240 249
80 65 51 41 37 43 56 65 74 89 105 125 134 144 156 167 179 193 190 156 127 119 107 112 91 74 51 29 52 62 51 58 59 40 49 93 130 146 162 160 149 120 103 86 94 124 138 120 109 99 99 101 119 142 167 196 215 229 237 236 246
86 72 58 49 47 56 73 85 93 107 120 127 146 155 168 181 164 143 136 122 94 77 64 56 61 47 34 20 30 39 39 26 22 48 94 131 138 146 159 140 112 82 60 29 16 41 92 107 102 94 94 100 123 145 167 197 213 229 234 244 239
88 77 65 58 57 67 83 97 106 112 127 142 153 164 188 154 114 92 79 78 67 52 47 36 31 26 26 16 26 30 16 5 9 30 54 86 104 113 115 100 89 65 48 43 28 20 9 71 95 89 91 103 123 149 174 196 214 228 232 237 246
89 81 74 70 71 78 91 103 112 122 137 144 146 174 188 118 88 94 74 63 68 56 42 28 13 10 9 16 29 29 12 3 1 10 34 69 70 60 68 81 81 71 58 39 34 42 7 26 75 92 95 108 129 154 178 199 213 228 236 239 246
93 89 85 84 85 90 101 112 123 135 116 95 108 159 149 124 98 91 76 68 69 55 39 20 14 14 8 17 26 26 5 4 4 10 39 71 76 90 97 87 75 64 44 30 19 13 21 2 39 93 108 122 145 167 187 206 218 228 233 243 240
98 95 93 93 94 98 109 119 133 138 75 91 110 138 126 97 84 86 81 65 61 43 28 22 22 15 22 18 18 35 12 24 18 8 19 44 54 76 86 82 68 57 40 26 17 22 18 6 8 84 120 140 158 180 203 213 221 229 233 238 241
99 98 92 90 90 101 108 126 133 126 98 95 102 107 77 68 52 47 47 55 40 30 45 37 21 17 19 12 18 42 29 46 42 36 43 32 26 40 50 56 52 51 49 34 21 15 7 2 0 51 130 159 175 191 209 217 225 228 232 237 241
95 93 93 91 90 96 110 114 93 117 140 86 73 49 33 32 29 52 60 58 69 84 94 99 68 54 31 22 25 39 44 79 66 41 67 88 74 47 52 49 40 36 40 43 40 28 11 4 0 11 85 178 193 203 217 223 225 228 232 237 241
95 85 89 93 93 94 110 101 100 128 119 69 24 44 47 37 66 73 68 87 96 113 135 103 78 65 40 37 43 44 49 97 97 62 68 94 122 98 51 55 44 32 31 33 33 35 25 11 0 7 30 129 208 219 219 223 227 229 232 236 241
95 85 84 86 87 79 84 90 126 124 49 13 60 68 85 79 67 45 56 58 66 90 86 77 54 52 46 48 61 56 47 92 122 102 77 85 101 115 74 58 62 58 49 34 28 34 33 23 13 1 11 30 147 226 223 226 228 231 233 237 242
95 82 69 69 69 62 66 106 109 39 35 73 120 125 107 78 69 75 82 83 82 75 62 54 62 71 61 46 52 52 39 62 98 96 79 69 68 109 90 60 52 58 48 36 39 41 31 20 15 11 0 1 45 201 228 223 229 233 235 239 244
89 82 72 60 63 90 95 110 82 24 59 87 86 93 95 88 94 98 97 93 80 65 60 55 72 72 59 58 57 34 24 38 46 66 68 54 74 91 64 61 53 53 47 40 40 45 36 12 15 10 10 0 8 134 237 221 230 234 237 241 245
99 89 73 65 96 127 110 88 78 97 96 95 69 46 51 56 57 59 58 59 59 54 57 60 49 53 38 24 18 14 15 11 20 38 34 50 77 67 47 44 47 44 43 40 32 35 36 16 12 10 3 3 1 55 211 223 229 235 239 242 245
99 91 81 94 117 78 73 132 152 133 126 109 90 65 33 22 30 24 32 44 49 55 49 29 26 20 17 10 5 6 10 12 10 19 27 47 42 31 21 36 44 38 28 37 44 31 16 8 7 5 4 1 1 11 126 221 228 235 240 242 244
95 88 85 117 118 93 100 113 118 110 99 89 69 50 35 17 6 4 8 16 22 25 26 23 17 13 11 5 3 5 5 11 15 24 23 15 17 12 10 27 42 30 16 30 34 28 8 7 6 4 5 2 7 0 81 211 223 235 237 245 242
92 77 90 143 153 143 97 48 34 39 40 40 36 32 29 20 22 28 33 27 11 2 2 4 3 1 1 1 9 24 29 33 22 13 6 4 5 3 5 19 39 21 10 25 21 12 1 5 5 4 1 3 10 2 64 200 225 238 243 242 243
86 90 126 175 178 114 57 26 25 34 34 33 32 36 48 58 53 51 47 39 28 18 9 1 0 0 1 0 3 10 12 13 15 6 3 4 5 2 3 14 27 11 8 22 11 4 1 7 4 5 0 2 9 6 46 194 228 231 240 241 242
77 118 158 135 102 52 36 29 41 31 23 28 36 36 34 36 36 31 28 31 33 30 22 15 8 4 6 7 6 4 4 6 8 10 6 0 2 2 0 7 7 3 7 15 4 2 3 3 3 7 6 5 6 6 25 182 226 234 241 244 245
73 106 138 113 84 61 40 43 26 14 8 7 4 2 5 11 13 12 15 22 25 23 23 25 34 34 39 46 47 41 30 18 12 14 10 0 0 3 0 2 0 2 6 8 2 2 1 0 2 5 14 15 7 0 5 153 216 234 242 242 246
79 105 128 115 100 76 50 22 3 0 2 4 3 3 2 2 4 9 18 28 35 39 49 60 76 83 88 89 87 85 73 53 35 27 24 14 0 0 2 1 0 2 2 3 2 0 0 3 2 0 12 20 10 0 0 115 215 226 235 241 242
97 105 134 110 73 52 48 5 0 0 2 0 0 1 0 5 21 32 44 54 64 75 91 106 122 135 141 137 130 124 109 82 72 56 47 30 7 0 0 1 1 0 0 1 1 0 0 1 1 0 4 16 11 0 3 59 185 225 232 245 243
114 111 157 137 82 59 18 1 1 2 4 1 3 10 24 51 62 70 78 89 109 129 143 151 162 169 171 169 164 159 144 116 91 78 66 49 32 20 9 3 5 3 5 6 5 2 1 0 0 2 1 10 9 0 0 4 114 221 228 240 244
106 100 125 96 88 66 5 0 1 1 2 3 14 37 56 74 79 92 108 128 150 162 168 174 178 180 184 183 170 166 161 142 117 105 90 76 62 50 38 27 26 21 21 20 13 2 0 0 0 0 0 10 5 0 0 0 88 220 225 239 242
94 53 42 37 47 35 1 2 1 0 0 6 31 57 72 87 104 123 144 162 176 181 181 185 189 191 192 189 183 181 178 164 148 139 128 116 102 88 74 63 51 49 45 36 18 4 0 0 0 3 2 5 0 0 0 2 50 187 223 239 243
87 61 22 7 8 9 2 0 2 1 0 12 49 79 96 115 135 151 167 178 186 190 192 196 195 197 193 189 186 185 184 176 162 155 146 135 122 111 101 93 87 79 70 54 28 9 1 0 0 0 0 1 0 3 0 1 11 130 201 224 239
85 65 26 24 9 0 3 2 0 0 0 21 73 107 128 149 160 172 184 192 200 204 203 203 202 203 199 195 192 192 193 187 186 177 167 155 142 133 125 118 108 98 89 70 33 5 0 1 0 1 0 3 1 0 0 0 20 116 190 213 230
99 67 39 60 37 10 3 0 3 2 1 30 97 131 148 164 173 182 192 200 207 211 208 204 205 204 203 201 196 198 205 200 199 189 178 168 158 150 142 134 129 118 107 83 42 8 0 1 0 3 0 4 0 0 3 0 18 124 184 210 226
113 101 67 58 30 6 0 5 0 0 0 34 110 146 165 182 186 192 199 206 211 215 216 215 207 205 204 203 197 200 208 205 203 193 183 174 168 162 155 147 144 135 124 100 59 19 1 0 0 2 0 1 0 1 3 0 36 154 189 217 236
132 111 50 21 13 5 0 2 1 0 4 44 123 158 177 190 191 195 202 208 212 213 212 211 209 207 203 202 199 198 200 197 196 188 180 175 170 166 159 151 141 129 122 116 85 35 4 0 1 1 0 0 1 1 0 11 115 198 210 224 239
138 114 64 33 13 2 1 1 0 0 7 57 144 178 190 194 199 198 200 204 206 205 202 199 198 198 191 190 190 185 181 177 175 168 159 150 137 122 105 92 84 56 53 85 96 56 11 0 0 0 2 1 1 0 2 47 177 218 230 238 244
135 132 89 28 12 4 1 1 2 0 9 71 163 192 199 201 196 191 192 190 194 190 183 180 184 184 180 176 171 166 153 151 141 112 101 86 60 43 32 24 16 13 10 25 60 47 23 3 0 0 0 0 0 0 0 100 213 230 243 245 246
124 120 104 40 6 7 0 3 0 3 16 102 179 173 171 174 166 157 147 148 144 142 143 142 144 152 155 150 144 139 105 77 70 27 20 4 0 2 4 0 3 2 5 3 9 15 21 1 1 0 3 0 4 0 1 152 224 237 247 248 248
121 110 100 76 27 9 0 2 2 0 35 138 142 87 96 90 84 78 68 60 54 61 57 66 79 101 123 128 123 105 62 42 37 23 10 7 16 20 32 39 40 37 28 20 12 4 8 15 1 0 0 0 0 2 37 191 232 240 245 247 248
111 111 99 101 47 14 9 2 2 1 60 99 50 30 34 21 15 4 4 6 2 1 0 15 35 59 95 107 94 77 49 44 47 39 28 17 11 14 16 33 46 61 70 66 43 22 16 22 4 0 0 1 3 25 77 204 235 238 242 245 247
117 110 109 120 81 13 1 6 0 12 64 71 38 40 46 38 43 50 39 21 15 17 29 50 68 83 105 101 85 93 80 59 44 24 10 22 30 2 0 3 6 12 31 59 64 44 28 34 17 0 2 0 23 45 61 193 239 240 242 246 247
111 118 123 125 109 21 2 8 3 15 102 101 78 93 97 100 82 39 15 3 2 19 19 31 63 98 128 137 141 147 108 61 36 15 23 75 88 2 1 0 28 11 9 27 48 51 46 50 30 0 0 1 36 42 35 177 239 239 242 245 245
118 127 128 137 136 56 2 7 0 30 137 138 129 136 118 61 27 13 0 0 9 63 46 24 28 89 151 200 219 199 133 70 35 32 48 85 129 60 20 45 79 25 16 34 53 62 69 61 40 3 0 19 49 43 47 182 237 237 241 243 242
112 125 131 147 174 151 28 1 0 45 170 162 144 107 57 19 64 127 42 0 36 93 70 64 65 107 171 227 233 211 161 99 73 74 104 110 108 103 82 81 65 47 58 66 84 90 91 75 50 5 10 39 62 48 56 189 239 239 242 243 240
98 113 124 153 200 206 117 18 0 59 183 175 132 87 56 39 66 121 107 68 96 113 98 112 121 145 195 233 228 206 165 132 115 105 132 134 122 115 103 93 87 87 95 107 118 115 104 81 55 12 15 54 66 61 66 198 239 239 241 242 243
73 91 102 145 139 159 181 105 12 78 202 181 155 130 117 121 112 102 113 126 125 131 148 162 166 182 213 238 226 196 161 149 145 141 149 160 159 145 142 127 126 127 134 141 145 131 114 90 56 18 20 44 72 64 93 216 239 240 241 243 244
61 72 82 115 131 128 153 161 80 96 208 194 189 180 167 159 138 143 140 139 153 177 194 194 185 200 225 241 227 197 162 151 144 142 162 184 185 172 169 164 159 160 163 163 157 135 113 87 53 21 30 41 62 73 132 230 239 240 242 244 245
47 51 62 80 131 122 147 162 146 114 212 204 207 207 201 186 178 172 177 194 201 208 215 205 194 209 233 243 222 192 159 143 138 138 163 189 198 196 191 191 190 187 186 178 162 142 121 90 54 27 42 54 72 96 184 237 239 241 243 246 246
42 45 52 72 128 129 170 178 141 122 211 203 210 213 211 206 202 206 205 213 221 220 217 209 203 218 239 245 218 182 150 143 126 139 160 191 206 209 211 207 205 197 193 178 158 142 124 86 48 29 54 56 82 139 225 235 239 241 244 246 247
37 40 41 57 101 132 166 168 134 131 201 200 208 213 215 217 217 221 225 231 232 228 218 204 210 230 243 243 225 194 160 158 140 130 158 199 206 211 217 215 211 202 196 179 159 146 128 87 43 28 47 67 84 167 239 235 240 242 244 246 246
32 35 35 41 50 112 179 154 134 138 190 206 207 208 214 216 225 228 232 233 230 219 210 215 226 241 244 241 235 219 197 201 190 143 153 198 208 217 219 217 213 204 195 178 162 145 123 86 37 31 75 62 108 222 234 236 240 242 244 245 245
32 33 31 32 34 65 150 182 155 162 187 204 208 214 221 226 229 234 236 230 219 201 204 239 236 236 234 230 213 191 177 188 198 165 145 187 211 212 217 212 211 204 190 172 158 136 110 79 33 42 70 69 185 232 233 240 240 242 244 245 245
34 35 32 40 39 42 98 196 175 169 182 202 212 214 224 227 229 226 227 216 202 193 217 238 225 209 213 200 167 140 146 176 185 153 127 182 207 208 207 207 198 189 184 167 146 124 103 64 28 50 69 123 226 230 234 239 241 241 242 243 244
43 43 51 47 53 54 66 160 204 194 188 198 206 216 218 223 221 212 208 193 185 195 198 191 161 156 176 157 112 78 90 117 134 98 95 179 192 195 191 190 187 174 166 151 132 109 86 54 26 55 83 160 230 232 241 237 241 241 242 242 243
52 55 63 63 70 73 72 112 166 180 175 191 207 203 211 207 205 198 184 166 179 187 186 117 47 69 120 130 68 29 15 31 67 57 87 174 186 188 177 171 162 154 150 137 118 96 71 43 27 121 148 206 234 232 237 240 241 241 242 242 241
76 82 81 90 92 92 97 90 107 157 164 167 197 195 193 197 194 168 157 167 190 194 196 101 30 18 21 58 33 10 10 17 20 43 104 166 184 184 164 135 131 131 133 118 97 81 56 27 57 217 229 229 229 237 237 240 242 242 242 242 241
94 100 103 110 114 107 105 102 87 120 183 148 193 181 186 179 168 151 163 167 157 181 147 52 14 0 0 13 16 2 4 3 8 43 107 141 140 144 141 124 107 110 114 101 78 67 46 16 52 204 225 232 230 232 235 244 243 243 243 242 241
111 115 117 119 122 113 106 98 82 82 127 131 171 179 169 161 156 145 147 113 88 99 71 29 13 6 6 12 11 2 2 3 2 18 45 69 67 69 62 64 81 92 97 92 71 58 39 11 25 183 222 231 229 237 241 236 243 244 244 243 241
113 113 114 117 120 116 114 93 83 64 52 66 147 157 145 148 132 112 85 33 24 31 40 16 0 7 7 73 61 13 2 4 4 8 7 9 7 3 0 11 49 80 86 81 60 43 26 5 32 194 225 231 229 232 238 242 242 244 245 244 242
110 101 106 106 109 106 100 90 77 62 52 43 118 126 124 125 119 54 18 4 2 19 38 7 7 5 40 121 117 51 4 2 5 8 14 2 2 0 3 0 32 81 86 72 48 30 17 2 50 208 223 229 231 232 235 240 242 244 245 244 242
102 98 95 93 92 92 87 79 68 62 47 50 95 123 111 113 100 29 2 1 4 13 26 30 39 49 77 110 102 60 26 12 11 20 18 2 4 2 0 0 36 91 82 58 32 27 9 15 100 214 226 230 230 232 237 239 241 244 245 244 241
95 90 84 78 72 71 72 70 63 51 48 45 74 106 103 105 114 71 12 27 29 11 2 80 121 139 142 153 129 139 114 84 80 60 42 1 4 4 4 14 61 93 73 47 40 22 0 81 202 225 226 231 231 230 234 239 241 244 245 244 242
84 78 70 62 56 56 61 65 62 55 58 52 63 96 103 93 104 105 59 51 84 75 49 85 107 138 169 210 188 204 166 115 93 63 45 23 33 33 28 47 93 87 72 49 31 13 1 104 220 223 233 226 229 232 235 239 241 244 246 245 244
67 60 53 49 47 48 54 59 57 59 59 58 57 76 99 94 112 130 102 82 125 152 147 143 114 101 109 138 122 126 112 80 76 79 71 59 49 53 52 76 96 80 55 33 20 7 2 96 212 223 232 226 232 230 233 237 241 244 246 245 244
56 52 46 43 42 43 48 53 53 55 53 57 51 51 82 110 113 127 113 97 142 158 167 177 201 183 175 170 153 155 165 153 138 117 83 63 57 66 63 75 81 62 36 21 16 3 0 87 217 225 229 233 229 230 237 239 241 244 246 245 244
52 52 49 45 42 42 46 52 52 51 55 56 53 48 63 97 110 123 111 93 138 154 165 180 190 203 207 198 183 189 189 171 137 92 67 52 64 65 60 65 73 46 32 19 7 3 6 79 208 223 227 232 227 235 236 240 240 243 246 245 244
54 55 53 48 47 47 48 52 51 50 53 51 51 51 48 60 85 103 98 93 105 142 144 146 157 167 167 164 167 171 156 127 92 60 51 44 57 56 58 54 58 37 23 7 2 9 14 75 209 227 224 229 232 233 229 238 239 243 245 245 244
64 64 60 57 58 58 55 53 57 52 47 45 44 44 45 44 49 69 94 87 98 132 135 112 93 104 117 123 137 122 97 62 37 27 32 51 56 46 51 45 42 22 10 5 4 12 17 56 195 228 228 229 231 230 235 238 239 242 245 245 245
78 76 70 71 70 65 63 58 56 52 48 43 37 37 41 41 44 56 78 76 83 118 140 123 81 50 36 31 32 25 18 11 15 29 47 55 57 55 45 39 22 15 3 0 7 16 25 35 162 241 235 234 228 230 233 237 236 243 244 250 244
87 88 84 84 82 76 73 67 63 59 54 46 38 37 42 44 53 52 55 61 90 117 140 137 118 85 57 14 3 10 10 21 38 63 76 72 61 56 46 20 10 6 4 7 14 23 31 36 72 168 192 230 241 230 231 234 241 238 240 247 248
91 92 88 87 85 83 81 77 69 67 61 51 42 38 42 46 45 49 51 58 83 97 129 150 144 130 112 73 62 62 57 71 77 96 98 89 59 36 32 8 3 0 5 13 19 30 40 42 33 25 39 116 220 239 230 238 237 243 247 244 245
88 89 89 89 88 87 86 84 78 77 72 62 52 46 45 48 48 51 51 50 60 76 114 150 158 150 130 120 120 112 110 115 104 101 89 80 48 16 13 5 2 4 11 19 25 35 45 49 44 17 0 25 194 221 230 234 238 240 241 245 247
79 81 85 86 85 83 86 91 89 88 80 70 61 52 46 46 47 53 54 54 56 75 98 132 139 145 132 125 112 98 104 107 100 79 57 47 32 11 3 1 5 12 20 26 33 40 46 53 46 40 8 92 216 208 216 232 239 238 246 240 245
72 70 76 80 79 76 80 91 97 97 88 77 69 57 47 45 50 56 54 52 51 61 72 95 115 123 117 104 88 86 82 73 76 47 24 16 13 5 1 8 13 21 26 31 41 47 52 59 48 42 60 186 216 205 174 161 218 238 239 249 244
71 58 57 64 68 66 68 80 93 95 88 79 73 60 47 45 45 48 45 44 48 48 57 48 66 81 89 77 60 62 53 48 48 21 7 7 6 6 9 20 24 28 33 40 49 58 63 65 49 56 162 232 207 205 174 56 93 219 241 242 241
136 97 68 58 56 52 50 60 73 79 76 71 66 53 38 36 36 36 38 36 45 51 82 55 41 50 53 45 30 29 26 34 27 10 5 10 13 20 26 26 28 30 39 51 60 68 70 64 65 169 226 212 210 209 196 72 10 101 227 246 242
196 169 129 87 55 43 43 45 57 64 61 57 51 41 34 27 27 30 32 37 41 48 101 118 78 42 29 29 20 14 15 22 14 13 16 20 24 25 26 27 27 43 52 62 71 75 73 76 158 232 219 208 212 212 208 77 4 21 162 251 242
224 209 182 141 95 62 46 38 41 48 47 46 42 34 28 21 22 22 28 30 31 42 100 156 146 116 81 57 48 39 29 26 28 28 29 30 28 26 28 31 41 52 60 67 77 75 84 173 229 219 211 212 218 214 200 42 0 2 87 237 239
239 228 208 173 124 81 53 35 29 34 34 35 34 28 24 19 19 21 22 28 23 74 178 160 145 146 126 97 75 58 48 46 42 38 35 33 29 27 33 41 51 65 68 73 70 83 160 224 223 214 215 214 213 221 158 11 3 0 33 188 239
251 245 233 207 161 114 75 43 25 27 27 27 26 23 20 18 14 20 24 24 47 155 225 178 154 149 129 107 89 75 67 55 51 45 41 38 36 36 45 55 69 67 72 73 88 185 233 221 213 217 214 221 220 205 65 1 3 0 3 67 222
251 251 247 231 190 142 97 55 32 30 31 30 27 23 22 22 23 28 28 35 119 223 172 157 164 156 137 120 102 87 74 54 51 50 49 48 45 44 52 61 66 75 70 97 188 232 219 218 219 220 220 220 225 146 6 6 5 6 5 0 99
251 250 248 240 210 171 124 72 44 39 40 38 33 29 28 32 29 36 33 58 190 217 114 143 164 160 139 119 111 100 79 59 56 57 57 54 49 50 58 68 75 66 87 187 232 225 220 219 220 224 220 223 220 70 5 3 5 2 3 6 12
251 250 249 246 224 190 142 81 51 44 44 40 34 33 35 42 43 40 46 115 242 183 73 112 150 159 151 132 121 107 83 71 72 69 65 59 56 59 65 72 65 91 179 233 230 225 225 224 226 231 229 243 157 5 2 7 3 3 4 5 13
249 251 251 247 223 193 150 92 58 49 47 43 37 38 44 55 56 59 69 186 236 145 66 75 132 148 156 144 130 113 92 88 82 76 67 61 61 63 64 62 100 196 233 234 230 227 226 232 228 230 233 227 55 4 4 3 4 4 6 10 12
250 252 249 246 228 197 149 93 62 55 53 45 37 42 52 62 69 73 107 226 211 133 63 60 115 137 153 148 145 126 107 96 89 85 70 64 63 65 59 108 196 241 235 232 231 226 229 230 230 229 239 157 8 5 3 3 4 6 8 10 13
249 251 250 247 230 198 151 96 65 56 52 46 42 49 61 72 82 91 145 252 204 135 67 49 110 116 139 149 145 136 124 109 99 90 76 64 64 69 117 214 239 239 234 238 231 228 231 236 232 238 217 62 0 7 6 5 4 7 9 12 17
247 251 251 249 230 199 154 101 77 58 52 52 48 48 62 81 104 100 166 255 214 133 65 37 102 103 119 138 142 141 126 113 108 88 82 64 78 135 212 246 245 239 236 236 231 232 231 231 229 240 167 15 7 3 1 3 6 8 10 13 18
246 250 250 248 230 199 157 108 74 64 58 51 46 57 78 97 102 117 189 254 232 147 57 32 91 98 100 116 122 123 117 115 101 83 65 96 189 236 246 242 243 243 236 236 234 231 232 232 234 213 71 3 3 5 3 10 8 10 11 14 18
245 248 249 247 229 200 162 116 81 71 69 70 71 79 88 95 107 123 201 255 244 179 50 24 82 94 88 106 112 107 101 94 84 79 128 208 245 245 253 248 247 244 240 239 236 231 231 229 236 148 13 5 3 12 7 8 9 11 13 16 21
243 246 247 245 229 203 169 126 90 80 87 97 96 91 92 100 104 114 225 255 247 195 66 18 65 101 93 92 102 93 85 83 105 180 234 254 249 247 249 249 245 242 243 236 234 229 226 234 227 63 6 7 6 6 9 11 11 13 16 19 23
240 243 245 246 232 208 177 136 103 102 104 96 84 86 95 103 87 114 250 253 252 215 110 3 56 97 97 89 94 85 124 199 244 255 253 252 252 251 248 248 248 239 238 233 233 226 228 237 150 5 5 8 13 7 10 12 14 17 19 20 23
238 242 244 246 234 212 182 142 111 97 87 81 84 96 99 98 68 124 255 254 243 211 134 11 36 87 97 87 143 201 234 255 253 254 252 252 251 250 253 248 243 237 237 233 226 230 238 206 52 6 12 10 10 11 12 16 16 19 21 22 24
232 239 243 246 240 202 155 112 92 80 79 77 89 95 101 82 54 130 255 252 247 216 161 23 20 80 98 162 240 246 232 227 255 250 255 252 252 253 252 246 245 235 232 231 227 233 241 118 11 12 11 10 12 13 14 16 17 21 21 20 22
237 239 242 222 183 141 114 87 79 70 66 70 95 101 95 70 52 129 235 217 235 241 239 78 0 72 208 238 226 212 212 212 224 255 255 251 255 252 251 249 238 233 228 233 229 243 211 35 11 12 11 11 14 16 15 15 18 19 20 21 23
237 232 203 151 121 102 86 72 62 62 61 66 93 97 83 57 52 141 230 207 219 230 241 222 110 155 231 216 216 219 219 218 211 234 252 254 252 254 248 243 238 231 231 235 241 247 135 6 13 13 11 11 15 18 17 16 21 21 21 24 28
203 152 117 102 95 78 64 60 65 60 64 78 86 68 57 52 44 162 231 209 194 216 219 235 255 234 214 219 220 219 228 225 217 200 225 253 252 255 251 240 233 230 238 244 250 204 39 10 14 14 11 10 14 17 17 18 18 18 19 22 26
125 101 95 87 78 66 62 66 62 59 70 82 74 54 54 56 44 152 233 210 176 183 205 208 226 245 220 225 231 236 234 236 228 200 200 239 255 252 248 237 232 231 236 248 243 133 7 11 12 14 13 11 13 15 17 19 20 20 23 25 26
95 89 83 75 73 63 60 66 63 68 78 76 60 55 59 47 37 133 238 209 187 188 194 201 213 240 233 238 241 242 241 239 236 212 202 223 253 250 240 234 229 235 247 248 214 52 4 12 10 13 15 13 13 13 15 17 17 18 21 23 21