P2
51 53
255
108 106 107 116 115 111 115 114 111 109 105 104 106 103 103 110 112 103 101 100 110 107 110 109 114 117 120 113 102 100 105 109 116 118 113 109 102 109 109 106 107 108 110 109 119 110 114 116 112 111 119
117 114 116 119 113 110 116 119 123 117 114 112 111 110 113 115 116 110 106 113 111 119 121 112 114 118 116 116 110 105 112 115 119 117 113 110 110 103 108 107 107 110 113 112 122 114 119 120 119 116 119
125 117 120 120 114 113 116 118 115 117 123 123 115 114 117 117 116 123 121 126 114 87 65 43 38 40 51 65 90 108 108 114 117 120 119 110 104 107 111 114 111 114 116 116 125 122 129 129 121 116 116
124 117 123 125 120 121 121 121 128 133 137 134 125 124 127 127 123 129 125 98 36 39 23 12 13 5 0 7 17 45 93 119 118 128 119 115 116 108 117 119 121 124 123 121 128 129 136 137 129 125 123
123 123 134 135 130 130 130 133 134 137 135 132 134 137 137 136 139 133 77 31 44 62 43 27 22 13 6 1 4 0 16 86 130 124 128 123 120 111 123 124 130 133 133 131 135 134 138 136 135 135 134
136 138 142 142 138 137 137 140 144 146 140 136 141 144 142 141 147 83 34 48 70 80 57 42 25 15 5 4 3 0 2 10 92 137 139 130 118 125 124 127 132 138 140 143 144 141 140 135 134 137 136
147 150 146 143 144 141 142 145 151 149 144 140 143 149 153 154 124 36 82 131 163 169 144 125 85 36 11 3 3 4 0 0 19 125 137 138 137 136 129 133 137 143 146 151 150 146 144 140 136 139 135
146 155 149 145 146 142 148 155 158 151 148 149 153 158 158 151 61 75 163 199 209 210 201 173 145 82 34 10 0 1 2 2 1 51 140 144 142 140 144 147 147 150 150 153 151 148 147 144 138 141 134
152 153 163 159 159 157 158 159 159 157 160 159 156 164 161 104 25 130 201 214 218 217 213 203 175 120 60 22 2 2 1 0 0 8 121 146 139 141 153 154 159 157 155 151 161 164 160 154 147 144 144
153 166 168 173 172 165 166 169 164 164 164 165 155 171 157 52 29 148 201 214 206 217 212 198 175 131 78 39 13 3 2 0 0 0 72 140 124 141 139 141 157 154 149 155 167 169 170 163 157 153 143
130 166 171 179 177 181 183 168 158 162 168 160 163 174 115 29 46 151 194 202 198 202 203 189 157 138 109 77 34 3 2 0 2 2 27 83 110 112 113 132 137 148 148 155 159 165 173 165 160 158 147
102 142 164 174 155 151 175 179 170 167 178 175 183 166 64 4 66 163 189 196 204 204 206 186 173 163 145 118 60 6 2 2 0 1 7 62 74 75 89 120 122 126 136 164 172 168 169 168 167 158 143
87 106 125 133 124 113 135 149 173 185 182 187 196 149 48 4 74 173 175 180 200 202 166 145 145 150 133 99 51 3 2 2 0 4 3 42 43 73 87 86 102 97 116 154 172 169 170 182 174 149 126
87 94 93 85 92 84 86 90 117 167 180 183 178 111 29 12 52 105 105 106 176 166 68 71 94 70 43 43 44 12 5 3 2 0 5 26 40 44 69 78 83 76 99 138 170 173 178 192 174 149 129
77 86 80 72 68 56 65 90 87 149 179 166 158 101 24 11 43 79 82 71 157 135 63 128 97 54 56 91 81 16 0 5 4 0 1 23 31 33 54 56 63 51 71 122 176 173 171 174 159 146 133
76 80 68 72 62 49 56 80 79 138 119 78 119 95 18 5 89 160 142 129 182 141 99 165 154 128 153 161 93 12 6 4 2 1 0 19 26 25 46 51 49 46 62 107 170 173 175 165 151 142 127
66 70 59 53 43 47 41 41 43 60 64 57 61 60 21 2 99 192 191 188 190 152 133 191 200 204 187 141 69 8 7 6 5 3 0 12 34 31 49 48 41 36 41 72 142 165 159 150 153 145 116
63 50 38 53 34 43 35 33 28 33 40 40 36 41 20 2 72 179 200 187 197 157 144 187 201 197 165 104 44 5 7 10 8 7 5 25 62 65 75 70 70 67 68 75 112 133 140 131 130 118 112
39 43 48 61 50 43 29 27 35 29 28 27 17 21 18 6 42 175 192 175 194 157 117 177 191 175 137 78 29 5 6 10 7 9 2 6 30 34 49 56 59 66 80 89 109 114 112 100 79 68 91
30 44 41 37 47 50 40 38 37 36 30 27 19 13 11 5 20 120 172 166 146 72 65 168 181 150 103 57 21 3 7 9 7 10 6 6 17 15 21 23 31 25 30 43 64 63 60 59 57 38 48
31 44 38 37 30 45 38 35 38 41 31 24 19 11 10 7 10 85 136 186 138 56 85 133 139 130 91 56 24 3 6 7 10 8 6 7 16 20 24 21 26 24 27 29 30 29 42 58 56 42 39
37 36 35 41 36 41 37 33 38 36 29 22 17 12 16 13 9 68 134 131 148 104 78 81 134 139 94 50 18 0 3 6 7 5 8 11 17 26 29 28 27 24 27 29 33 47 61 61 49 41 30
34 36 43 42 39 25 26 30 29 27 31 30 30 20 16 10 8 26 117 170 157 114 94 116 133 116 68 35 15 8 8 7 7 2 2 6 18 30 32 34 35 34 37 39 41 48 46 37 35 36 33
39 38 34 36 26 31 30 31 36 36 41 42 44 25 11 5 7 7 31 133 180 164 137 116 106 70 38 27 8 4 6 10 6 5 5 8 21 34 33 41 46 40 32 33 35 32 27 30 38 43 53
24 36 37 24 30 26 27 36 37 38 42 46 54 30 13 12 10 7 2 42 154 185 136 95 57 39 23 17 9 4 6 7 6 5 8 7 13 34 42 51 53 42 37 36 41 42 33 37 42 44 36
16 32 37 27 24 19 27 31 35 41 51 60 77 37 17 8 6 7 4 0 40 68 53 37 27 19 13 10 8 5 3 4 5 6 6 4 11 29 30 36 44 37 37 35 35 34 26 29 39 56 60
20 28 41 40 33 30 40 46 53 63 67 82 83 47 12 9 4 5 4 3 4 13 27 19 15 13 16 18 22 18 5 4 5 7 5 1 7 25 28 35 34 38 27 30 32 25 26 21 29 41 44
19 21 39 45 45 51 57 63 68 80 82 82 71 61 19 10 11 5 5 2 7 42 83 56 34 28 32 38 48 38 10 4 5 3 1 1 7 24 28 33 43 37 35 31 33 31 25 37 38 34 34
20 33 38 53 58 59 70 66 73 69 76 73 69 57 27 14 14 10 4 7 2 31 121 109 77 60 60 71 82 66 25 7 2 3 5 5 0 14 35 53 54 55 59 63 60 60 71 79 83 62 50
49 47 61 61 52 48 34 44 66 62 61 67 52 34 20 13 7 9 2 6 11 35 119 143 122 103 101 111 118 98 49 12 7 6 5 8 3 7 10 14 17 23 56 54 54 91 99 85 64 64 69
53 62 60 68 52 35 38 38 16 30 26 30 16 17 14 9 6 5 12 14 55 118 142 159 153 144 147 152 150 132 80 22 13 19 14 9 4 3 2 7 7 15 20 7 16 78 110 79 68 77 74
41 53 63 54 36 43 40 37 10 10 14 14 18 11 9 8 8 9 28 92 136 177 185 179 171 174 183 184 177 162 111 38 16 30 20 8 4 6 7 18 22 43 66 71 81 111 106 61 58 76 74
35 52 60 45 39 53 51 29 8 14 4 23 13 11 6 6 10 26 116 166 192 196 200 201 197 197 207 197 189 164 105 32 23 42 17 6 6 8 4 13 25 49 109 133 116 96 88 75 68 65 52
43 57 55 54 67 70 51 22 18 22 6 18 20 5 8 8 17 76 169 197 210 216 218 215 206 207 213 203 187 165 112 43 30 35 13 6 3 10 7 1 6 16 69 111 116 107 104 97 82 89 97
44 73 77 67 73 65 42 34 27 27 23 24 19 5 3 16 40 124 202 213 217 222 217 213 210 218 218 210 192 167 106 43 26 32 11 2 3 18 19 12 7 17 46 65 81 96 99 81 101 92 91
35 76 97 98 91 76 58 39 39 45 30 17 4 6 9 45 76 154 207 215 220 225 219 215 216 225 216 204 192 166 91 40 39 27 6 11 28 45 37 20 7 5 23 49 81 106 117 109 118 123 123
28 45 62 100 108 88 76 42 41 47 13 4 3 2 28 84 131 187 217 220 222 227 224 220 218 225 218 208 195 168 89 50 25 31 46 64 69 79 70 43 21 4 4 16 28 40 72 97 94 115 135
45 43 30 39 74 90 80 70 56 21 3 4 8 1 56 145 184 207 218 221 223 227 230 231 224 224 224 216 191 157 86 52 47 60 90 115 111 90 62 38 12 7 6 5 10 18 33 33 40 55 87
42 48 46 41 58 62 59 96 66 4 4 4 2 8 66 174 215 220 220 217 219 223 231 232 231 229 227 225 197 156 102 74 76 98 98 65 34 18 8 2 3 4 8 6 7 14 30 27 19 45 91
51 69 65 62 69 78 89 88 30 1 3 3 4 14 41 128 204 219 224 210 212 225 236 230 231 233 227 228 201 148 97 70 67 39 15 6 6 5 4 4 6 2 7 9 6 6 24 28 28 27 40
77 97 82 86 99 97 70 25 3 2 7 3 7 25 52 62 97 142 175 183 220 238 228 227 229 232 220 205 145 93 55 25 9 6 7 8 5 10 3 4 5 4 3 8 12 7 17 42 39 42 38
90 70 73 81 67 53 26 5 9 6 7 6 17 33 48 47 50 61 69 91 136 163 178 194 204 207 177 126 69 47 24 3 8 3 10 7 14 11 9 1 5 6 5 6 6 5 16 39 57 60 51
88 77 78 82 85 61 10 13 13 10 10 11 26 35 36 28 43 42 54 70 74 76 78 88 90 94 83 58 34 28 8 5 8 7 15 26 19 9 6 4 0 3 4 5 8 7 11 20 29 39 30
82 89 87 87 97 73 18 9 13 12 12 14 26 26 21 16 31 32 59 69 58 67 59 60 51 56 50 29 11 10 0 8 6 11 16 29 14 8 9 8 10 8 5 6 10 11 11 14 28 31 29
56 65 62 62 56 36 9 7 11 9 11 13 21 14 11 13 11 23 48 56 51 56 40 37 33 36 27 12 1 3 2 3 12 13 14 9 16 26 40 26 16 13 9 8 8 6 8 13 39 50 55
53 52 46 53 53 34 9 10 10 7 8 11 16 9 8 13 10 28 34 39 40 29 21 28 32 21 8 7 6 4 5 3 6 8 9 10 21 37 38 18 19 11 6 6 5 4 5 7 24 52 63
83 77 75 77 48 19 12 15 11 7 8 9 13 8 9 10 8 15 13 18 24 15 20 27 28 21 10 7 5 2 5 5 4 4 3 14 22 41 36 28 21 10 3 2 3 7 11 11 12 24 23
102 102 98 105 67 18 9 9 11 9 11 9 11 8 9 7 7 7 15 15 15 14 25 24 23 12 3 1 4 0 2 9 5 3 11 13 30 38 30 17 7 4 4 4 3 7 11 10 12 35 48
102 106 110 105 35 6 6 12 12 12 12 14 9 4 7 7 5 10 12 8 9 18 21 15 9 9 3 1 1 0 3 4 9 13 15 19 27 28 15 2 4 4 4 3 5 9 12 13 15 25 53
77 86 84 62 18 5 13 14 11 10 10 12 8 3 6 5 5 8 10 8 10 16 17 11 8 9 3 1 1 1 4 5 8 13 14 13 14 12 7 2 3 3 3 3 5 9 12 13 13 20 44
41 39 29 11 5 3 13 16 11 10 8 10 7 3 5 5 5 6 8 8 10 14 13 7 7 8 3 1 2 1 5 6 5 9 9 5 3 2 2 4 4 4 4 4 5 7 9 10 10 12 28
35 23 10 3 11 7 10 15 16 14 9 9 6 3 5 5 7 5 6 8 11 13 11 5 5 8 3 2 3 2 5 5 4 5 3 2 2 2 2 4 4 4 4 4 5 6 7 8 12 10 19
21 16 8 8 10 12 13 19 21 18 10 8 5 2 5 6 9 6 5 8 11 13 11 6 4 8 5 4 4 3 4 3 7 5 1 1 4 4 2 3 1 2 2 4 6 7 8 9 14 10 13