P2
40 50
255
68 58 25 42 51 30 27 33 36 40 55 61 62 60 37 40 37 56 60 63 109 118 123 116 94 83 109 141 146 115 61 32 91 113 56 28 27 28 27 28
73 56 33 47 29 27 35 32 42 49 50 78 101 83 51 34 29 36 63 33 42 90 144 144 127 115 99 78 117 130 60 4 91 160 86 30 25 25 24 27
64 44 30 26 31 34 31 30 35 42 42 46 53 78 74 72 47 23 48 46 36 71 48 32 82 69 42 9 26 118 89 0 82 196 106 16 20 22 22 26
32 22 29 36 34 29 29 28 27 28 31 28 45 38 48 42 59 52 22 40 26 38 14 34 30 17 18 20 11 47 94 20 94 213 181 89 21 20 21 24
31 43 35 32 28 27 28 29 29 29 30 34 47 51 34 28 27 58 33 35 31 25 27 36 35 28 23 23 21 7 79 191 211 248 254 205 55 11 20 23
48 35 27 27 29 28 28 30 30 31 32 32 31 44 54 42 58 30 29 31 35 26 29 31 27 35 35 40 17 13 36 163 173 183 180 133 42 13 19 19
40 30 27 28 27 28 28 28 31 34 36 35 39 63 56 54 55 67 41 26 33 22 30 32 29 36 42 38 31 18 25 15 8 78 96 46 24 17 17 13
29 28 28 29 29 29 32 32 30 32 33 30 31 46 42 36 34 41 55 31 29 22 27 30 25 33 24 21 44 27 38 19 10 104 120 54 14 0 0 0
28 27 29 31 30 28 28 29 31 31 29 30 31 24 24 27 26 27 35 29 26 25 24 27 28 28 48 48 19 25 42 33 7 109 152 115 99 91 116 152
28 29 31 29 29 28 30 31 31 32 30 29 30 32 32 27 19 48 44 18 24 25 40 30 23 27 48 65 50 23 29 72 163 224 239 249 255 255 255 255
30 30 27 28 28 27 29 30 30 30 27 27 29 26 29 25 24 51 17 8 24 31 77 92 50 18 25 38 35 13 26 90 238 255 249 240 219 184 162 150
29 27 26 26 27 28 29 29 30 28 27 28 32 35 30 35 36 44 28 24 56 166 192 233 157 12 17 42 58 16 28 48 80 102 123 76 27 3 0 0
27 27 28 27 28 29 29 29 28 28 29 29 29 31 22 39 63 77 111 148 200 251 255 255 242 72 10 48 72 38 30 37 4 23 94 55 8 0 0 19
30 29 27 27 29 28 29 30 28 28 27 25 23 33 45 82 136 162 203 221 246 248 247 248 255 191 54 59 52 31 42 26 24 64 151 137 105 93 86 126
30 27 26 28 28 28 28 28 27 24 30 52 59 80 116 150 194 201 220 222 237 243 242 245 251 241 138 105 41 34 49 21 21 59 186 223 206 172 139 153
28 26 26 28 28 28 28 29 25 29 60 78 112 148 181 198 205 204 224 227 235 240 240 242 246 255 177 89 50 33 76 36 20 18 67 124 114 66 32 33
26 26 27 27 27 27 28 30 27 44 72 92 143 184 202 212 212 202 214 221 233 239 242 242 244 253 219 61 55 24 124 66 13 16 5 7 31 23 0 8
26 26 27 27 26 27 30 26 32 66 83 105 140 187 207 212 216 207 210 221 233 239 241 243 246 245 255 99 31 47 107 50 10 18 17 18 28 43 30 44
26 26 27 27 25 27 28 30 47 80 91 110 154 184 183 194 217 223 213 214 227 238 242 244 246 249 255 177 1 39 73 12 18 25 24 22 15 66 131 151
26 26 27 26 25 25 31 49 60 82 93 115 145 173 198 208 226 234 221 215 229 236 253 255 251 227 238 234 28 2 25 19 25 28 32 33 23 56 107 102
26 26 27 24 24 29 39 60 73 83 88 130 164 172 199 222 218 237 224 212 225 212 180 169 120 196 241 245 90 33 35 19 28 34 47 54 48 38 24 16
26 26 26 24 29 39 45 70 86 80 88 139 189 214 208 221 213 221 232 224 196 162 48 16 82 176 221 255 194 54 47 28 44 45 47 44 44 39 30 21
26 26 24 26 33 47 47 65 80 78 58 46 59 87 103 135 175 194 215 226 175 124 51 36 69 109 45 180 251 64 11 53 51 41 30 25 25 36 24 11
26 26 24 27 37 49 46 60 57 37 34 64 63 17 13 48 107 115 147 249 156 43 39 9 16 185 179 202 255 103 6 39 38 31 32 28 31 95 115 102
26 26 26 31 35 46 46 49 39 54 104 139 122 79 36 45 46 42 75 237 207 59 68 110 150 222 251 251 255 150 0 24 33 35 42 40 46 127 156 115
27 27 27 30 36 37 43 43 53 75 90 45 13 58 132 48 36 51 64 187 255 190 93 92 120 147 209 244 255 187 4 35 41 37 36 40 50 75 60 20
29 28 27 30 43 52 48 56 66 59 16 37 18 86 197 83 67 69 68 167 245 254 200 150 154 190 232 244 255 219 15 26 30 39 34 37 52 49 35 17
28 27 27 29 41 54 59 69 65 44 33 86 120 154 130 65 72 89 87 140 224 248 253 247 248 248 243 247 253 238 32 0 28 38 42 47 55 54 40 5
30 29 28 28 38 51 65 76 74 66 68 74 102 109 82 81 108 109 94 114 211 244 248 240 234 236 238 243 247 253 64 16 39 42 44 58 63 47 73 80
36 33 30 29 39 47 64 83 97 82 71 99 120 135 124 138 141 104 84 119 213 238 247 245 233 239 238 236 241 255 83 20 46 59 64 76 75 83 203 241
43 37 31 28 38 44 54 76 97 94 87 114 146 156 142 170 146 92 81 120 213 233 241 248 244 224 234 234 231 255 96 0 40 56 66 72 61 103 244 255
39 39 33 30 34 43 48 61 84 97 105 122 151 165 160 181 139 88 101 123 201 229 239 247 229 221 201 226 222 248 90 0 24 27 38 50 50 71 163 177
38 34 35 31 32 45 42 54 76 90 101 117 141 163 162 174 118 87 116 110 162 219 233 232 231 248 211 212 214 237 84 3 8 11 18 32 49 56 48 12
39 36 32 32 31 41 45 53 64 81 92 100 129 146 155 163 122 80 64 62 74 133 167 202 227 238 244 234 210 227 63 0 22 2 0 0 0 10 11 12
32 38 41 40 30 36 46 52 58 70 80 89 111 129 132 144 149 120 97 69 30 79 54 58 67 109 126 199 225 214 46 126 232 189 141 122 92 105 180 221
27 39 49 45 31 32 42 51 62 68 66 74 93 96 114 158 156 103 60 20 19 42 12 0 10 59 58 74 220 186 37 198 239 255 255 255 255 255 245 255
23 31 54 54 36 28 38 47 60 67 66 64 67 77 121 130 95 60 16 17 14 17 19 34 44 77 59 0 133 140 6 25 38 62 105 170 255 254 218 236
25 23 36 44 35 25 35 43 53 63 64 55 62 77 103 69 22 27 30 45 39 37 81 88 95 99 42 26 155 79 18 52 26 36 41 46 150 166 93 210
27 25 22 22 24 25 28 37 45 55 68 67 57 62 66 29 13 18 53 67 67 69 84 113 167 205 166 73 104 65 50 102 77 45 100 89 35 18 12 104
28 27 27 27 24 25 25 31 40 52 65 71 59 58 43 16 22 42 43 50 65 123 151 172 216 231 224 135 77 40 62 88 118 49 52 102 116 96 40 0
28 27 27 26 26 26 26 26 31 38 47 53 50 52 40 18 39 86 76 86 84 114 163 152 207 231 224 179 78 36 78 89 101 106 14 16 49 133 151 85
29 28 27 26 26 26 26 26 25 30 34 40 40 38 37 21 39 106 102 103 104 101 102 62 139 243 242 225 76 12 79 92 96 121 75 0 7 59 109 136
29 29 28 26 26 26 26 28 27 24 30 32 33 30 31 20 58 119 114 111 83 27 5 1 147 254 249 249 73 0 65 85 85 104 126 34 3 29 45 66
30 31 29 27 25 26 26 26 32 28 25 27 30 32 28 26 70 124 122 123 95 20 17 31 147 246 255 210 35 8 50 79 83 85 106 93 6 18 35 41
32 33 33 35 30 26 26 26 33 37 30 24 26 26 26 28 63 123 151 146 124 55 54 83 117 216 177 113 22 8 44 75 72 73 68 85 40 8 32 39
34 34 37 50 37 27 26 25 28 36 37 30 23 22 24 24 30 80 142 117 100 64 63 129 131 119 66 41 14 11 38 70 63 59 59 68 61 11 24 34
35 36 38 33 28 27 27 26 27 32 38 40 33 26 22 22 21 36 70 50 43 72 72 74 64 44 27 21 24 15 32 65 63 65 67 68 69 23 16 30
35 34 32 28 26 27 27 26 27 30 33 39 42 35 24 22 21 18 24 27 26 37 36 28 15 8 15 33 24 17 29 63 71 73 78 78 82 52 10 25
33 32 29 28 26 25 26 26 27 30 30 36 44 44 36 31 26 19 19 21 24 16 6 14 22 43 70 50 21 18 27 52 84 72 81 85 87 85 24 12
29 28 27 26 26 26 27 27 27 31 29 32 42 48 46 41 43 45 41 29 28 45 52 77 109 115 80 35 21 19 28 38 73 77 68 81 84 90 69 12
